<svg width="90" height="28" viewBox="0 0 90 28" fill="none" xmlns="http://www.w3.org/2000/svg">
<g clip-path="url(#clip0_363_322)">
<path d="M25.7997 19.8443C25.6585 19.5031 25.5262 19.1443 25.385 18.8381L24.7321 17.3768L24.7056 17.3506C22.7644 13.1506 20.6909 8.88059 18.4938 4.68059L18.4056 4.50559C18.185 4.09434 17.9644 3.63934 17.735 3.21934C17.4527 2.72059 17.1791 2.18684 16.7291 1.67934C16.2905 1.14833 15.7385 0.720506 15.1128 0.426739C14.4872 0.132972 13.8037 -0.0194092 13.1115 -0.0194092C12.4193 -0.0194092 11.7357 0.132972 11.1101 0.426739C10.4845 0.720506 9.93248 1.14833 9.49384 1.67934C9.07913 2.18684 8.77031 2.72059 8.48796 3.21934C8.26737 3.67434 8.04678 4.12059 7.81737 4.53184L7.72913 4.70684C5.56737 8.90684 3.45854 13.1768 1.51737 17.3768L1.46443 17.4293C1.27031 17.8843 1.0409 18.3568 0.820308 18.8643C0.679131 19.1706 0.537955 19.5031 0.396779 19.8706C0.0156308 20.8329 -0.106082 21.8771 0.0436364 22.9003C0.193354 23.9234 0.609335 24.8903 1.25058 25.7054C1.89183 26.5206 2.73621 27.1561 3.70051 27.5491C4.6648 27.9421 5.71573 28.0792 6.74972 27.9468C7.74102 27.8174 8.69555 27.49 9.5556 26.9843C10.7027 26.3456 11.8056 25.4181 13.0409 24.0793C14.2762 25.4181 15.4056 26.3456 16.5262 26.9931C17.6038 27.6203 18.8242 27.9665 20.0732 27.9993C21.5197 28.0053 22.9196 27.4921 24.0143 26.5545C25.109 25.6168 25.8246 24.3181 26.0291 22.8981C26.2655 21.8776 26.1855 20.8102 25.7997 19.8356V19.8443ZM13.1291 21.2968C11.6115 19.3718 10.6232 17.6043 10.288 16.0906C10.149 15.5297 10.1191 14.9476 10.1997 14.3756C10.2615 13.9293 10.4291 13.5356 10.6585 13.2031C11.188 12.4418 12.1144 11.9693 13.1291 11.9693C13.611 11.9547 14.089 12.059 14.5202 12.2728C14.9514 12.4866 15.3224 12.8033 15.5997 13.1943C15.8291 13.5443 15.9968 13.9293 16.0497 14.3756C16.138 14.8831 16.1027 15.4693 15.9615 16.0906C15.6262 17.5781 14.638 19.3631 13.1291 21.2968ZM24.3703 22.5918C24.2701 23.3128 23.9811 23.9951 23.5321 24.5708C23.0831 25.1465 22.4899 25.5955 21.8115 25.8731C21.1409 26.1531 20.3997 26.2318 19.6762 26.1531C18.9703 26.0656 18.2644 25.8381 17.5409 25.4181C16.3396 24.6818 15.2594 23.767 14.338 22.7056C16.1909 20.4306 17.3115 18.3568 17.735 16.5106C17.938 15.6356 17.9644 14.8481 17.8762 14.1218C17.766 13.4335 17.5072 12.7768 17.1174 12.1968C16.6723 11.5679 16.0783 11.0571 15.3874 10.7092C14.6966 10.3614 13.9302 10.1871 13.1556 10.2018C11.5232 10.2018 10.0674 10.9543 9.18501 12.1881C8.78781 12.7666 8.53111 13.4285 8.43501 14.1218C8.32031 14.8568 8.34678 15.6706 8.57619 16.5106C8.99972 18.3568 10.1468 20.4568 11.9732 22.7231C11.0675 23.8047 9.98475 24.7276 8.77031 25.4531C8.03795 25.8731 7.3409 26.0918 6.63501 26.1793C5.53726 26.3188 4.42838 26.0229 3.54939 25.3561C2.6704 24.6892 2.09235 23.7053 1.9409 22.6181C1.85266 21.9181 1.91443 21.2181 2.19678 20.4306C2.28501 20.1506 2.41737 19.8706 2.55854 19.5381C2.75266 19.0831 2.98207 18.6106 3.20266 18.1381L3.23796 18.0768C5.14384 13.9031 7.22619 9.64184 9.38796 5.46809L9.47619 5.29309C9.69678 4.87309 9.91737 4.42684 10.1468 4.00684C10.3762 3.56059 10.6232 3.13184 10.9409 2.78184C11.2158 2.45636 11.5594 2.1946 11.9474 2.01501C12.3354 1.83541 12.7583 1.74233 13.1865 1.74233C13.6146 1.74233 14.0376 1.83541 14.4256 2.01501C14.8136 2.1946 15.1571 2.45636 15.4321 2.78184C15.7409 3.13184 15.9968 3.56059 16.2262 4.00684C16.4468 4.42684 16.6674 4.88184 16.8968 5.29309L16.985 5.46809C19.138 9.64184 21.2203 13.9031 23.1615 18.0768L23.188 18.1031C23.4174 18.5581 23.6115 19.0656 23.8321 19.5031C23.9732 19.8443 24.1144 20.1156 24.2027 20.4043C24.3703 21.1918 24.4585 21.8918 24.3703 22.5918ZM36.6527 21.1043C35.9878 21.114 35.3292 20.9751 34.7259 20.6979C34.1225 20.4207 33.5898 20.0123 33.1674 19.5031C32.218 18.4181 31.7142 17.019 31.7556 15.5831C31.7411 14.1159 32.2612 12.6928 33.2203 11.5756C33.664 11.0599 34.2162 10.6469 34.8382 10.3657C35.4602 10.0845 36.1368 9.94197 36.8203 9.94809C37.4635 9.93063 38.1006 10.0757 38.6717 10.3696C39.2428 10.6634 39.7291 11.0965 40.085 11.6281L40.1732 10.2543H42.7497V20.8243H40.1644L40.0762 19.2843C39.7093 19.8519 39.2022 20.3171 38.603 20.6356C38.0038 20.9541 37.3324 21.1155 36.6527 21.1043ZM37.3232 18.5843C37.835 18.5843 38.285 18.4443 38.7085 18.1906C39.0968 17.9106 39.4144 17.5431 39.6615 17.0968C39.8821 16.6506 39.9968 16.1168 39.9968 15.5218C40.0312 15.0051 39.9297 14.4883 39.7024 14.022C39.475 13.5558 39.1296 13.156 38.6997 12.8618C38.2867 12.6067 37.8099 12.4714 37.3232 12.4714C36.8366 12.4714 36.3598 12.6067 35.9468 12.8618C35.5585 13.1418 35.2409 13.5093 34.9938 13.9556C34.7605 14.4477 34.6457 14.9869 34.6585 15.5306C34.6241 16.0474 34.7256 16.5642 34.9529 17.0304C35.1803 17.4967 35.5258 17.8964 35.9556 18.1906C36.3703 18.4443 36.8203 18.5843 37.3232 18.5843ZM47.1615 7.40184C47.1615 7.70809 47.1085 7.98809 46.9674 8.21559C46.8262 8.43434 46.6321 8.63559 46.3762 8.77559C46.1203 8.91559 45.8468 8.96809 45.5644 8.96809C45.2821 8.96809 44.9997 8.91559 44.7438 8.77559C44.5018 8.64199 44.2983 8.44921 44.1527 8.21559C44.016 7.96633 43.949 7.6854 43.9585 7.40184C43.9585 7.08684 44.0203 6.80684 44.1527 6.58809C44.2938 6.32559 44.4968 6.16809 44.7438 6.02809C44.9997 5.88809 45.2732 5.82684 45.5644 5.82684C45.8453 5.82042 46.123 5.88639 46.3705 6.01829C46.6179 6.15019 46.8266 6.3435 46.9762 6.57934C47.1046 6.83445 47.1682 7.1168 47.1615 7.40184ZM44.1615 20.7893V10.2368H46.9674V20.8068H44.1527L44.1615 20.7893ZM54.4674 13.0018V13.0368C54.335 12.9756 54.1585 12.9493 54.0262 12.9231C53.8497 12.8881 53.7085 12.8881 53.5409 12.8881C52.7556 12.8881 52.1644 13.1156 51.7762 13.5881C51.3527 14.0693 51.1585 14.7431 51.1585 15.6093V20.7981H48.3438V10.2281H50.9291L51.0174 11.8293C51.2997 11.2693 51.635 10.8493 52.1115 10.5343C52.5854 10.2283 53.1434 10.0754 53.7085 10.0968C53.9115 10.0968 54.1056 10.1143 54.2732 10.1493C54.3615 10.1756 54.4144 10.1756 54.4674 10.2018V13.0018ZM55.5968 20.7893V5.89684H58.4027V11.5843C58.7997 11.0768 59.2497 10.6831 59.8144 10.3768C60.7084 9.94217 61.724 9.81887 62.6973 10.0268C63.6707 10.2348 64.545 10.7619 65.1791 11.5231C66.1306 12.6104 66.6346 14.0129 66.5909 15.4518C66.6054 16.919 66.0853 18.3421 65.1262 19.4593C64.6825 19.975 64.1303 20.388 63.5083 20.6692C62.8863 20.9504 62.2097 21.093 61.5262 21.0868C60.883 21.1043 60.2459 20.9593 59.6748 20.6654C59.1037 20.3715 58.6174 19.9384 58.2615 19.4068L58.1733 20.7806L55.5968 20.8068V20.7893ZM61.0233 18.5843C61.5262 18.5843 61.9762 18.4443 62.3997 18.1906C62.788 17.9106 63.1056 17.5431 63.3527 17.0968C63.5821 16.6506 63.688 16.1168 63.688 15.5218C63.688 14.9356 63.5821 14.4018 63.3527 13.9556C63.121 13.5253 62.7954 13.1516 62.3997 12.8618C61.9867 12.6067 61.5099 12.4714 61.0233 12.4714C60.5366 12.4714 60.0598 12.6067 59.6468 12.8618C59.2497 13.1418 58.9409 13.5093 58.685 13.9556C58.4517 14.4477 58.3369 14.9869 58.3497 15.5306C58.3153 16.0474 58.4168 16.5642 58.6441 17.0304C58.8715 17.4967 59.2169 17.8964 59.6468 18.1906C60.0615 18.4443 60.5115 18.5843 61.0233 18.5843ZM67.6497 20.7981V10.2281H70.235L70.3232 11.6018C70.6481 11.0753 71.109 10.6443 71.6581 10.3536C72.2073 10.0628 72.8248 9.92283 73.4468 9.94809C74.158 9.93591 74.8571 10.1319 75.4566 10.5117C76.0562 10.8914 76.5295 11.438 76.8174 12.0831C77.1262 12.7481 77.2938 13.5706 77.2938 14.4893V20.8243H74.4791V14.8568C74.4791 14.1218 74.3115 13.5443 73.9762 13.1156C73.6409 12.6956 73.1821 12.4681 72.5997 12.4681C72.1762 12.4681 71.8056 12.5556 71.4791 12.7481C71.1703 12.9493 70.9144 13.2031 70.7203 13.5618C70.524 13.9245 70.4267 14.3317 70.438 14.7431V20.7981H67.6497ZM78.6968 20.7981V5.88809H81.5115V11.5756C81.8927 11.0653 82.3887 10.6501 82.96 10.363C83.5313 10.0759 84.1622 9.92489 84.8027 9.92184C85.4676 9.91219 86.1261 10.0511 86.7295 10.3283C87.3328 10.6055 87.8655 11.0139 88.288 11.5231C89.2326 12.6103 89.7331 14.0086 89.6909 15.4431C89.7062 16.9104 89.186 18.3338 88.2262 19.4506C87.7825 19.9663 87.2303 20.3793 86.6083 20.6605C85.9863 20.9417 85.3097 21.0842 84.6262 21.0781C83.983 21.0955 83.3459 20.9505 82.7748 20.6566C82.2037 20.3627 81.7174 19.9297 81.3615 19.3981L81.2821 20.7718L78.6968 20.7981ZM84.1497 18.5843C84.6615 18.5843 85.1115 18.4443 85.5262 18.1906C85.9233 17.9106 86.2321 17.5431 86.488 17.0968C86.7085 16.6506 86.8233 16.1168 86.8233 15.5218C86.8577 15.0051 86.7562 14.4883 86.5289 14.022C86.3015 13.5558 85.956 13.156 85.5262 12.8618C85.1132 12.6067 84.6363 12.4714 84.1497 12.4714C83.6631 12.4714 83.1862 12.6067 82.7732 12.8618C82.385 13.1418 82.0674 13.5093 81.8203 13.9556C81.574 14.4433 81.4585 14.9858 81.485 15.5306C81.4506 16.0474 81.5521 16.5642 81.7794 17.0304C82.0068 17.4967 82.3522 17.8964 82.7821 18.1906C83.1968 18.4443 83.6203 18.5843 84.1497 18.5843Z" fill="#FF385C"/>
</g>
<defs>
<clipPath id="clip0_363_322">
<rect width="90" height="28" fill="white"/>
</clipPath>
</defs>
</svg>
