<svg width="20" height="24" viewBox="0 0 20 24" fill="none" xmlns="http://www.w3.org/2000/svg">
<path d="M16.343 12.4445C16.3157 9.48832 18.8256 8.05011 18.9403 7.98315C17.5189 5.96251 15.3157 5.68643 14.5414 5.66442C12.691 5.47455 10.8961 6.74399 9.95344 6.74399C8.992 6.74399 7.54044 5.68276 5.97599 5.71395C3.9628 5.74422 2.07944 6.88065 1.04651 8.64539C-1.08521 12.2437 0.50464 17.5314 2.54699 20.4399C3.56863 21.8644 4.76243 23.4549 6.325 23.3989C7.85371 23.3375 8.42474 22.4487 10.2695 22.4487C12.0974 22.4487 12.6336 23.3989 14.2272 23.3631C15.8679 23.3375 16.9008 21.9323 17.8867 20.495C19.0673 18.8623 19.5415 17.2544 19.5603 17.1719C19.5217 17.159 16.374 15.9878 16.343 12.4445Z" fill="white"/>
<path d="M13.3326 3.75109C14.1548 2.74857 14.7174 1.38466 14.5612 0.000572205C13.3712 0.0519366 11.8829 0.803142 11.0259 1.78365C10.2676 2.64768 9.59031 4.06387 9.76529 5.39567C11.1021 5.4929 12.4746 4.73802 13.3326 3.75109Z" fill="white"/>
</svg>
