<svg width="683" height="558" viewBox="0 0 683 558" fill="none" xmlns="http://www.w3.org/2000/svg">
<path d="M683 447.228H0V447.569H683V447.228Z" fill="#EBEBEB"/>
<path d="M614.564 469.208H495.859V469.55H614.564V469.208Z" fill="#EBEBEB"/>
<path d="M500.434 456.531H488.563V456.873H500.434V456.531Z" fill="#EBEBEB"/>
<path d="M466.789 472.923H440.576V473.264H466.789V472.923Z" fill="#EBEBEB"/>
<path d="M101.166 458.824H71.6606V459.166H101.166V458.824Z" fill="#EBEBEB"/>
<path d="M151.475 458.824H113.323V459.166H151.475V458.824Z" fill="#EBEBEB"/>
<path d="M347.661 464.425H283.678V464.766H347.661V464.425Z" fill="#EBEBEB"/>
<path d="M323.742 386.305H59.9815C57.9152 386.301 55.9348 385.478 54.475 384.015C53.0152 382.553 52.1953 380.571 52.1953 378.505V7.73156C52.2133 5.67713 53.0411 3.71276 54.499 2.26513C55.9569 0.817494 57.927 0.00351935 59.9815 0H323.742C325.811 0 327.795 0.821769 329.258 2.28453C330.721 3.74728 331.542 5.73121 331.542 7.79986V378.505C331.542 380.574 330.721 382.558 329.258 384.02C327.795 385.483 325.811 386.305 323.742 386.305ZM59.9815 0.273201C58.0058 0.27682 56.1122 1.0642 54.7165 2.46252C53.3207 3.86085 52.5368 5.75584 52.5368 7.73156V378.505C52.5368 380.481 53.3207 382.376 54.7165 383.774C56.1122 385.172 58.0058 385.96 59.9815 385.963H323.742C325.719 385.96 327.614 385.173 329.012 383.775C330.41 382.377 331.197 380.482 331.201 378.505V7.73156C331.197 5.75459 330.41 3.85962 329.012 2.46169C327.614 1.06376 325.719 0.276812 323.742 0.273201H59.9815Z" fill="#EBEBEB"/>
<path d="M619.221 386.305H355.446C353.379 386.301 351.397 385.478 349.935 384.016C348.473 382.554 347.65 380.572 347.646 378.505V7.73156C347.668 5.67588 348.499 3.71153 349.959 2.26427C351.419 0.817016 353.391 0.00348096 355.446 0H619.221C621.273 0.00710934 623.24 0.822672 624.695 2.26992C626.15 3.71717 626.976 5.67949 626.994 7.73156V378.505C626.994 380.569 626.176 382.549 624.719 384.011C623.262 385.473 621.285 386.298 619.221 386.305ZM355.446 0.273201C353.469 0.276812 351.574 1.06376 350.176 2.46169C348.779 3.85962 347.992 5.75459 347.988 7.73156V378.505C347.992 380.482 348.779 382.377 350.176 383.775C351.574 385.173 353.469 385.96 355.446 385.963H619.221C621.198 385.96 623.093 385.173 624.491 383.775C625.889 382.377 626.676 380.482 626.679 378.505V7.73156C626.676 5.75459 625.889 3.85962 624.491 2.46169C623.093 1.06376 621.198 0.276812 619.221 0.273201H355.446Z" fill="#EBEBEB"/>
<path d="M375.896 442.568H257.969C252.47 442.568 247.195 440.384 243.307 436.495C239.418 432.606 237.233 427.332 237.233 421.832L237.233 315.899C237.232 313.175 237.767 310.477 238.808 307.96C239.849 305.442 241.376 303.155 243.302 301.228C245.228 299.301 247.514 297.772 250.031 296.729C252.547 295.686 255.245 295.15 257.969 295.15H375.896V442.568Z" fill="#F0F0F0"/>
<path d="M374.926 442.568H376.879C388.331 442.568 397.615 433.285 397.615 421.832V315.899C397.615 304.447 388.331 295.163 376.879 295.163H374.926C363.474 295.163 354.19 304.447 354.19 315.899V421.832C354.19 433.285 363.474 442.568 374.926 442.568Z" fill="#F5F5F5"/>
<path d="M360.119 349.532H220.855V442.57H360.119V349.532Z" fill="#F0F0F0"/>
<path d="M105.743 442.584H377.017V442.98C377.017 444.107 376.57 445.187 375.773 445.984C374.976 446.781 373.896 447.228 372.769 447.228H110.005C108.878 447.228 107.798 446.781 107.001 445.984C106.204 445.187 105.757 444.107 105.757 442.98V442.584H105.743Z" fill="#E0E0E0"/>
<path d="M244.39 241.426H115.836C112.133 241.359 108.458 242.082 105.056 243.547C101.654 245.012 98.604 247.185 96.1081 249.921C93.6121 252.657 91.7281 255.894 90.5814 259.416C89.4347 262.937 89.0518 266.663 89.4581 270.344L98.3508 370.568H284.714L275.931 270.344C275.123 262.5 271.466 255.224 265.653 249.894C259.84 244.565 252.275 241.552 244.39 241.426Z" fill="#E0E0E0"/>
<path d="M273.391 241.426H142.064C138.538 241.36 135.039 242.047 131.8 243.44C128.562 244.833 125.657 246.901 123.281 249.507C120.905 252.112 119.111 255.193 118.021 258.547C116.93 261.9 116.567 265.447 116.957 268.951L125.945 370.568H312.322L303.347 268.951C302.581 261.495 299.11 254.578 293.59 249.506C288.071 244.435 280.885 241.561 273.391 241.426Z" fill="#F5F5F5"/>
<path d="M227.808 341.037H360.488C362.144 341.037 363.731 341.695 364.902 342.866C366.073 344.036 366.73 345.624 366.73 347.28V372.701C366.73 374.357 366.073 375.944 364.902 377.115C363.731 378.286 362.144 378.944 360.488 378.944H227.808C227.714 378.944 227.624 378.906 227.557 378.84C227.491 378.773 227.453 378.683 227.453 378.588V341.392C227.453 341.298 227.491 341.208 227.557 341.141C227.624 341.075 227.714 341.037 227.808 341.037Z" fill="#E0E0E0"/>
<path d="M220.172 442.568H102.245C96.7456 442.568 91.4713 440.384 87.5826 436.495C83.6939 432.606 81.5092 427.332 81.5092 421.832L81.5092 315.899C81.5074 313.175 82.0424 310.477 83.0837 307.96C84.125 305.442 85.6521 303.155 87.5778 301.228C89.5035 299.301 91.79 297.772 94.3067 296.729C96.8233 295.686 99.5209 295.15 102.245 295.15H220.172L220.172 442.568Z" fill="#F0F0F0"/>
<path d="M219.202 442.568H221.155C232.607 442.568 241.891 433.285 241.891 421.832L241.891 315.899C241.891 304.447 232.607 295.163 221.155 295.163H219.202C207.75 295.163 198.466 304.447 198.466 315.899V421.832C198.466 433.285 207.75 442.568 219.202 442.568Z" fill="#F5F5F5"/>
<path d="M600.767 273.69H563.898V447.227H600.767V273.69Z" fill="#E6E6E6"/>
<path d="M593.759 447.227H600.767V417.024H586.424L593.759 447.227Z" fill="#F0F0F0"/>
<path d="M462.977 273.69H426.109V447.227H462.977V273.69Z" fill="#E6E6E6"/>
<path d="M600.768 273.69H456.86V437.255H600.768V273.69Z" fill="#F0F0F0"/>
<path d="M531.169 283.636V321.229H595.344V283.636H531.169Z" fill="#E6E6E6"/>
<path d="M462.295 283.636V321.229H526.47V283.636H462.295Z" fill="#E6E6E6"/>
<path d="M500.735 288.227H488.031C482.722 288.298 477.558 286.489 473.456 283.118H515.31C511.207 286.489 506.044 288.298 500.735 288.227Z" fill="#F0F0F0"/>
<path d="M570.249 288.227H557.545C552.236 288.298 547.073 286.489 542.97 283.118H584.824C580.722 286.489 575.558 288.298 570.249 288.227Z" fill="#F0F0F0"/>
<path d="M531.169 332.005V369.598H595.344V332.005H531.169Z" fill="#E6E6E6"/>
<path d="M462.295 332.005V369.598H526.47V332.005H462.295Z" fill="#E6E6E6"/>
<path d="M500.735 336.556H488.031C482.72 336.624 477.556 334.809 473.456 331.434H515.31C511.209 334.809 506.046 336.624 500.735 336.556Z" fill="#F0F0F0"/>
<path d="M570.249 336.556H557.545C552.235 336.624 547.071 334.809 542.97 331.434H584.824C580.724 334.809 575.56 336.624 570.249 336.556Z" fill="#F0F0F0"/>
<path d="M531.169 380.362V417.954H595.344V380.362H531.169Z" fill="#E6E6E6"/>
<path d="M462.295 380.376V417.969H526.47V380.376H462.295Z" fill="#E6E6E6"/>
<path d="M500.735 384.911H488.031C482.715 384.967 477.551 383.137 473.456 379.747H515.31C511.215 383.137 506.051 384.967 500.735 384.911Z" fill="#F0F0F0"/>
<path d="M570.25 384.911H557.546C552.23 384.967 547.066 383.137 542.971 379.747H584.825C580.73 383.137 575.566 384.967 570.25 384.911Z" fill="#F0F0F0"/>
<path d="M463.867 447.227H456.859V417.024H471.202L463.867 447.227Z" fill="#F0F0F0"/>
<path d="M469.795 251.03C469.795 251.03 470.382 273.692 492.552 273.692C514.723 273.692 515.31 251.03 515.31 251.03H469.795Z" fill="#E6E6E6"/>
<path d="M538.996 253.845C538.996 253.845 539.515 273.693 558.939 273.693C578.364 273.693 578.869 253.845 578.869 253.845H538.996Z" fill="#FAFAFA"/>
<path d="M522.072 257.668C522.072 257.668 522.482 273.691 538.164 273.691C553.845 273.691 554.242 257.668 554.242 257.668H522.072Z" fill="#F5F5F5"/>
<path d="M469.795 234.009C469.795 234.009 470.383 256.657 492.553 256.657C514.723 256.657 515.31 234.009 515.31 234.009H469.795Z" fill="#E6E6E6"/>
<path d="M559.718 20.4209H118.186V210.664H559.718V20.4209Z" fill="#E6E6E6"/>
<path d="M568.803 20.4209H123.76V210.664H568.803V20.4209Z" fill="#F0F0F0"/>
<path d="M559.609 200.35V30.7607L132.952 30.7607V200.35L559.609 200.35Z" fill="#FAFAFA"/>
<path d="M185.326 200.338L239.283 30.749H310.014L256.057 200.338H185.326Z" fill="white"/>
<path d="M267.503 200.338L321.46 30.749H353.411L299.454 200.338H267.503Z" fill="white"/>
<path d="M394.256 200.338L448.213 30.749H502.771L448.814 200.338H394.256Z" fill="white"/>
<path d="M559.609 200.35V30.7607H558.448V200.35H559.609Z" fill="#E6E6E6"/>
<path d="M359.545 20.4209H333.018V210.664H359.545V20.4209Z" fill="#F0F0F0"/>
<path d="M333.018 200.338V30.749H331.856V200.338H333.018Z" fill="#E6E6E6"/>
<path d="M346.746 20.4209H345.817V210.664H346.746V20.4209Z" fill="#E6E6E6"/>
<path d="M341.501 508.914C487.775 508.914 606.354 501.99 606.354 493.45C606.354 484.91 487.775 477.987 341.501 477.987C195.226 477.987 76.647 484.91 76.647 493.45C76.647 501.99 195.226 508.914 341.501 508.914Z" fill="#F5F5F5"/>
<path d="M304.112 186.537H273.951V493.45H304.112C324.264 493.45 344.219 489.481 362.837 481.769C381.455 474.057 398.372 462.753 412.622 448.504C426.872 434.254 438.175 417.337 445.887 398.719C453.599 380.101 457.568 360.146 457.568 339.994C457.568 319.841 453.599 299.886 445.887 281.268C438.175 262.65 426.872 245.733 412.622 231.483C398.372 217.234 381.455 205.93 362.837 198.218C344.219 190.506 324.264 186.537 304.112 186.537Z" fill="#F7A600"/>
<path opacity="0.1" d="M304.112 186.537H273.951V493.45H304.112C324.264 493.45 344.219 489.481 362.837 481.769C381.455 474.057 398.372 462.753 412.622 448.504C426.872 434.254 438.175 417.337 445.887 398.719C453.599 380.101 457.568 360.146 457.568 339.994C457.568 319.841 453.599 299.886 445.887 281.268C438.175 262.65 426.872 245.733 412.622 231.483C398.372 217.234 381.455 205.93 362.837 198.218C344.219 190.506 324.264 186.537 304.112 186.537Z" fill="white"/>
<path d="M204.242 199.434L203.627 198.218C214.294 192.904 225.531 188.82 237.122 186.047L237.436 187.413C225.953 190.153 214.817 194.185 204.242 199.434Z" fill="#F7A600"/>
<path d="M186.513 209.799L185.761 208.665C188.698 206.698 191.731 204.786 194.777 203.023L195.46 204.198C192.441 205.96 189.436 207.845 186.513 209.799Z" fill="#F7A600"/>
<path d="M382.46 448.503C442.389 388.575 442.389 291.412 382.46 231.483C322.532 171.555 225.369 171.555 165.44 231.483C105.512 291.412 105.512 388.575 165.44 448.503C225.369 508.432 322.532 508.432 382.46 448.503Z" fill="#F7A600"/>
<path opacity="0.1" d="M367.59 257.187C343.761 236.062 312.768 224.829 280.938 225.781C249.108 226.733 218.841 239.799 196.318 262.31C173.795 284.821 160.713 315.081 159.744 346.91C158.774 378.74 169.991 409.739 191.102 433.579C178.345 422.269 168.036 408.469 160.81 393.028C153.584 377.586 149.594 360.829 149.084 343.788C148.574 326.747 151.556 309.782 157.847 293.936C164.137 278.09 173.602 263.699 185.661 251.647C197.719 239.595 212.116 230.137 227.965 223.856C243.814 217.574 260.781 214.601 277.822 215.12C294.863 215.639 311.617 219.639 327.055 226.873C342.492 234.108 356.287 244.424 367.59 257.187Z" fill="white"/>
<path opacity="0.1" d="M334.586 351.182C330.68 346.338 324.587 342.918 316.309 340.924C321.051 339.487 325.333 336.83 328.726 333.219C332.968 328.38 335.244 322.127 335.105 315.694C335.183 311.837 334.426 308.01 332.887 304.473C331.347 300.936 329.061 297.774 326.185 295.204C320.23 289.74 311.701 287.008 300.6 287.008H293.77V267.651H280.848V287.008H264.825V267.651H251.916V287.008H223.845V310.353H233.939V378.885H223.845V402.23H251.916V421.586H264.825V402.23H280.848V421.586H293.77V402.23H295.409C300.751 401.982 306.077 401.458 311.364 400.659C317.393 399.885 321.901 398.628 324.888 396.889C329.622 394.196 333.554 390.293 336.28 385.578C339.064 380.669 340.48 375.102 340.378 369.459C340.424 362.128 338.493 356.036 334.586 351.182ZM269.865 310.353H285.588C290.988 310.353 294.772 311.295 296.939 313.18C298.036 314.165 298.899 315.383 299.464 316.744C300.029 318.106 300.282 319.576 300.204 321.048C300.303 322.585 300.062 324.125 299.497 325.559C298.933 326.992 298.06 328.283 296.939 329.34C294.772 331.252 290.906 332.209 285.342 332.209H269.865V310.353ZM300.983 374.281C298.469 376.458 294.148 377.546 288.019 377.546H269.865V354.133H287.937C294.185 354.133 298.547 355.166 301.024 357.234C302.234 358.221 303.201 359.474 303.85 360.896C304.499 362.317 304.813 363.868 304.767 365.43C304.854 367.096 304.558 368.76 303.902 370.295C303.246 371.829 302.247 373.193 300.983 374.281Z" fill="white"/>
<path d="M330.27 351.182C326.364 346.338 320.271 342.918 311.993 340.924C316.738 339.484 321.023 336.828 324.424 333.219C328.656 328.375 330.926 322.125 330.79 315.694C330.867 311.837 330.11 308.01 328.571 304.473C327.031 300.936 324.745 297.774 321.87 295.204C315.914 289.74 307.385 287.008 296.284 287.008H289.454V267.651H276.546V287.008H260.509V267.651H247.6V287.008H219.529V310.353H229.624V378.885H219.529V402.23H247.6V421.586H260.509V402.23H276.546V421.586H289.454V402.23H291.094C296.435 401.982 301.761 401.458 307.048 400.659C313.068 399.885 317.576 398.628 320.572 396.889C325.309 394.2 329.242 390.295 331.964 385.578C334.748 380.669 336.164 375.102 336.062 369.459C336.108 362.128 334.177 356.036 330.27 351.182ZM265.549 310.353H281.272C286.672 310.353 290.456 311.295 292.623 313.18C293.72 314.165 294.583 315.383 295.148 316.744C295.713 318.106 295.966 319.576 295.888 321.048C295.987 322.585 295.746 324.125 295.181 325.559C294.617 326.992 293.744 328.283 292.623 329.34C290.447 331.252 286.581 332.209 281.026 332.209H265.549V310.353ZM296.667 374.281C294.153 376.458 289.832 377.546 283.703 377.546H265.549V354.133H283.622C289.86 354.133 294.222 355.166 296.708 357.234C297.921 358.219 298.889 359.472 299.539 360.894C300.188 362.315 300.5 363.868 300.451 365.43C300.538 367.096 300.242 368.76 299.586 370.295C298.93 371.829 297.931 373.193 296.667 374.281Z" fill="white"/>
<path d="M420.823 120.097C428.209 120.097 434.196 114.202 434.196 106.929C434.196 99.6564 428.209 93.7607 420.823 93.7607C413.437 93.7607 407.45 99.6564 407.45 106.929C407.45 114.202 413.437 120.097 420.823 120.097Z" fill="#263238"/>
<path d="M432.679 117.996C432.698 119.472 432.277 120.921 431.471 122.158C430.664 123.394 429.509 124.363 428.15 124.942C426.791 125.52 425.292 125.681 423.841 125.405C422.391 125.128 421.055 124.427 420.005 123.389C418.954 122.352 418.235 121.026 417.94 119.579C417.645 118.133 417.787 116.631 418.347 115.265C418.908 113.899 419.862 112.731 421.088 111.908C422.315 111.086 423.758 110.647 425.234 110.647C426.206 110.639 427.169 110.824 428.069 111.19C428.97 111.555 429.789 112.095 430.481 112.777C431.172 113.46 431.722 114.272 432.099 115.168C432.477 116.063 432.673 117.024 432.679 117.996Z" fill="#263238"/>
<path d="M439.211 117.652C446.596 117.652 452.584 111.756 452.584 104.484C452.584 97.2111 446.596 91.3154 439.211 91.3154C431.825 91.3154 425.837 97.2111 425.837 104.484C425.837 111.756 431.825 117.652 439.211 117.652Z" fill="#263238"/>
<path d="M441.177 482.211L452.146 482.047L455.301 456.612L444.332 456.776L441.177 482.211Z" fill="#FF8B7B"/>
<path d="M507.947 481.623L517.864 475.831L509.914 452.377L500.011 458.169L507.947 481.623Z" fill="#FF8B7B"/>
<path d="M518.93 475.052L507.305 481.65C507.114 481.754 506.966 481.922 506.886 482.124C506.806 482.326 506.8 482.55 506.868 482.756L509.791 492.318C509.865 492.548 509.989 492.759 510.155 492.935C510.321 493.11 510.524 493.247 510.75 493.333C510.975 493.42 511.217 493.454 511.458 493.435C511.699 493.415 511.932 493.342 512.141 493.22C515.843 491.034 518.452 489.272 523.164 486.595C526.06 484.955 534.98 480.297 538.983 478.016C542.985 475.735 541.264 471.5 539.42 472.06C531.156 474.628 524.394 475.557 520.815 474.792C520.176 474.65 519.507 474.742 518.93 475.052Z" fill="#263238"/>
<path d="M452.365 480.832L440.385 481.023C440.17 481.025 439.961 481.101 439.795 481.237C439.628 481.374 439.513 481.564 439.47 481.775L437.462 491.555C437.41 491.791 437.412 492.035 437.469 492.27C437.526 492.505 437.635 492.723 437.789 492.909C437.944 493.095 438.138 493.243 438.358 493.342C438.579 493.442 438.819 493.489 439.06 493.481C443.377 493.345 449.619 492.989 455.042 492.907C461.394 492.812 466.885 493.071 474.33 492.907C478.824 492.839 479.999 488.277 478.114 487.894C469.508 486.146 462.501 486.05 455.015 481.597C454.218 481.104 453.302 480.839 452.365 480.832Z" fill="#263238"/>
<path d="M469.083 148.688C470.613 151.898 472.266 155.367 473.946 158.659C475.627 161.951 477.348 165.325 479.124 168.576C482.533 175.006 486.356 181.207 490.571 187.14L491.349 188.22C491.472 188.383 491.472 188.397 491.459 188.424C491.117 188.265 490.753 188.159 490.379 188.11C489.778 188.042 489.341 188.247 489.396 188.302C489.687 188.252 489.963 188.135 490.202 187.96C491.337 187.177 492.374 186.26 493.289 185.228C494.436 183.982 495.512 182.674 496.513 181.308C498.657 178.494 500.611 175.379 502.619 172.21C504.627 169.041 506.484 165.735 508.301 162.525L515.978 165.517C513.906 173.348 510.95 180.919 507.168 188.083C506.12 189.965 504.971 191.789 503.725 193.547C502.303 195.577 500.622 197.414 498.726 199.011C497.466 200.064 496.058 200.925 494.546 201.565C492.449 202.455 490.149 202.757 487.893 202.44C485.61 202.058 483.472 201.067 481.705 199.571C481.03 198.997 480.395 198.376 479.807 197.713L478.796 196.511C476.096 193.402 473.583 190.136 471.269 186.731C468.933 183.411 466.83 179.996 464.781 176.568C462.732 173.139 460.833 169.642 459.016 166.104C457.199 162.566 455.492 159.069 453.866 155.176L469.083 148.688Z" fill="#FF8B7B"/>
<path d="M449.414 148.62C446.464 158.673 467.282 186.089 467.282 186.089L488.263 172.593C484.307 163.901 479.43 155.657 473.716 148.005C465.055 136.981 452.597 137.582 449.414 148.62Z" fill="#F7A600"/>
<path opacity="0.2" d="M462.145 160.422C466.461 162.266 472.813 172.716 476.119 180.365L467.171 186.089C462.196 179.436 457.721 172.423 453.785 165.107C456.64 162.02 459.863 159.452 462.145 160.422Z" fill="white"/>
<path d="M508.411 166.772L505.679 154.41L518.15 154.314C518.15 154.314 521.483 163.603 514.79 167.974L508.411 166.772Z" fill="#FF8B7B"/>
<path d="M507.142 142.828L517.141 146.421L518.193 154.316L505.721 154.412L507.142 142.828Z" fill="#FF8B7B"/>
<path opacity="0.2" d="M455.3 456.612L453.675 469.726L442.692 469.903L444.331 456.79L455.3 456.612Z" fill="white"/>
<path opacity="0.2" d="M500.011 458.17L509.928 452.392L514.013 464.481L504.096 470.259L500.011 458.17Z" fill="white"/>
<path d="M400.469 144.165C412.285 185.814 409.908 230.018 410.974 238.965C419.539 238.351 451.845 235.933 469.452 234.621C475.066 171.963 461.775 140.149 461.775 140.149C461.775 140.149 458.019 139.425 452.896 138.892C451.298 138.728 449.563 138.592 447.76 138.496C446.763 138.496 445.752 138.4 444.728 138.387C436.412 138.529 428.112 139.144 419.866 140.231C418.309 140.422 416.725 140.668 415.181 140.914C413.637 141.16 412.367 141.419 411.083 141.679C405.086 142.867 400.469 144.165 400.469 144.165Z" fill="#F7A600"/>
<path opacity="0.1" d="M442.063 182.033L432.843 186.541L422.789 182.811L421.136 166.624L440.424 165.846L442.063 182.033Z" fill="white"/>
<path opacity="0.2" d="M412.955 162.034C414.007 166.064 412.805 184.45 408.598 188.985C408.024 183.098 407.232 176.951 406.248 170.667L412.955 162.034Z" fill="white"/>
<path d="M420.249 112.01C422.421 119.892 425.071 134.439 419.866 140.19C424.538 144.193 430.589 148.755 440.124 148.386C449.659 148.018 447.5 141.556 444.727 138.346C435.657 136.871 435.384 130.232 436.531 123.908L420.249 112.01Z" fill="#FF8B7B"/>
<path d="M419.867 138.375C419.867 138.375 422.353 144.262 442.229 148.224C438.936 150.642 437.434 156.556 437.434 156.556C437.434 156.556 411.48 152.199 412.272 140.643C413.625 139.55 419.867 138.375 419.867 138.375Z" fill="white"/>
<path d="M450.779 154.358C448.364 151.765 445.463 149.671 442.241 148.197C443.577 146.841 444.484 145.122 444.849 143.253C445.213 141.385 445.019 139.451 444.29 137.692C446.283 137.627 448.279 137.71 450.26 137.938C450.26 137.938 459.494 145.123 450.779 154.358Z" fill="white"/>
<path opacity="0.4" d="M443.197 156.542C443.374 157.744 444.044 158.632 444.699 158.536C445.355 158.441 445.724 157.389 445.546 156.187C445.369 154.985 444.699 154.083 444.057 154.179C443.415 154.274 443.019 155.326 443.197 156.542Z" fill="#263238"/>
<path opacity="0.2" d="M426.875 116.915L436.437 123.95C436.157 125.423 436.011 126.918 436 128.417C432.557 128.171 427.599 124.783 426.97 121.245C426.673 119.82 426.641 118.352 426.875 116.915Z" fill="white"/>
<path d="M431.329 102.218C439.733 102.218 446.546 95.5091 446.546 87.2331C446.546 78.9571 439.733 72.248 431.329 72.248C422.924 72.248 416.111 78.9571 416.111 87.2331C416.111 95.5091 422.924 102.218 431.329 102.218Z" fill="#263238"/>
<path d="M445.535 89.1576C445.493 89.1421 445.457 89.1108 445.437 89.0701C445.417 89.0294 445.413 88.9825 445.426 88.939C445.949 87.0597 446.091 85.0948 445.845 83.1597C445.599 81.2245 444.969 79.358 443.992 77.6695C442.008 74.2198 438.744 71.6918 434.908 70.6346C434.864 70.6238 434.827 70.5961 434.804 70.5577C434.781 70.5192 434.774 70.4732 434.785 70.4297C434.796 70.3863 434.823 70.3489 434.862 70.3258C434.9 70.3028 434.946 70.2959 434.99 70.3068C436.935 70.8343 438.756 71.7406 440.35 72.9736C441.944 74.2065 443.279 75.742 444.279 77.492C445.28 79.2212 445.926 81.1327 446.179 83.1147C446.432 85.0967 446.288 87.1092 445.754 89.0347C445.738 89.078 445.708 89.1144 445.667 89.137C445.627 89.1595 445.58 89.1669 445.535 89.1576Z" fill="#263238"/>
<path d="M443.855 105.306C450.207 105.306 455.357 100.236 455.357 93.9814C455.357 87.7272 450.207 82.6572 443.855 82.6572C437.503 82.6572 432.354 87.7272 432.354 93.9814C432.354 100.236 437.503 105.306 443.855 105.306Z" fill="#263238"/>
<path d="M417.477 107.613C424.862 107.613 430.85 101.717 430.85 94.4446C430.85 87.172 424.862 81.2764 417.477 81.2764C410.091 81.2764 404.104 87.172 404.104 94.4446C404.104 101.717 410.091 107.613 417.477 107.613Z" fill="#263238"/>
<path d="M418.406 100.088C419.881 110.866 420.195 117.259 426.069 122.408C434.921 130.154 447.925 124.198 449.701 113.202C451.313 103.298 448.636 87.3295 437.708 83.8052C435.303 83.0154 432.736 82.854 430.252 83.3362C427.767 83.8185 425.447 84.9283 423.513 86.5603C421.578 88.1922 420.094 90.292 419.2 92.6598C418.306 95.0276 418.033 97.5847 418.406 100.088Z" fill="#FF8B7B"/>
<path d="M412.285 94.7175C413.405 109.88 446.9 88.6661 439.769 80.5794C432.639 72.4926 421.697 78.2025 417.749 81.8497C412.818 86.3985 412.012 91.0019 412.285 94.7175Z" fill="#263238"/>
<path d="M438.363 81.2059C444.538 79.3209 455.083 90.3308 445.631 89.2244C436.178 88.1179 431.124 83.4325 438.363 81.2059Z" fill="#263238"/>
<path d="M414.403 112.393C415.205 113.487 416.215 114.413 417.375 115.116C418.536 115.819 419.823 116.286 421.164 116.491C424.757 117.01 426.082 113.677 424.689 110.535C423.446 107.708 420.058 104.033 416.643 104.962C413.228 105.891 412.436 109.675 414.403 112.393Z" fill="#FF8B7B"/>
<path d="M457.747 467.172L439.183 467.459C439.183 467.459 449.906 394.118 448.24 359.996C447.735 349.614 449.387 335.093 446.655 319.535C443.186 299.919 441.519 292.105 437.093 267.326C433.897 249.65 431.069 237.534 431.069 237.534L469.509 234.665C469.509 234.665 482.062 323.059 481.693 356.512C481.256 391.263 457.747 467.172 457.747 467.172Z" fill="#263238"/>
<path d="M416.821 96.1929C423.023 97.9823 425.864 112.967 418.529 106.875C411.194 100.783 409.554 94.1029 416.821 96.1929Z" fill="#263238"/>
<path opacity="0.2" d="M446.682 319.491C447.987 327.619 448.527 335.851 448.294 344.079C451.49 353.108 454.277 361.66 456.216 369.268C459.618 382.587 465 402.776 470.245 422.187C475.941 399.457 481.487 373.189 481.665 356.441L446.682 319.491Z" fill="white"/>
<path d="M448.716 236.167C448.716 236.167 476.337 305.97 486.8 336.336C498.275 369.598 516.784 459.385 516.784 459.385L499.327 469.302C499.327 469.302 472.102 395.279 460.833 362.877C447.992 325.995 412.626 267.653 410.974 238.981L448.716 236.167Z" fill="#263238"/>
<path d="M519.092 458.58L498.52 470.246L495.037 464.099L517.808 450.671L519.092 458.58Z" fill="#F7A600"/>
<path d="M460.082 467.526L437.967 467.867L437.857 460.723L462.568 459.958L460.082 467.526Z" fill="#F7A600"/>
<path d="M432.843 101.888C432.911 102.776 433.431 103.459 434.004 103.404C434.578 103.35 434.988 102.612 434.933 101.738C434.879 100.863 434.346 100.18 433.772 100.221C433.198 100.262 432.775 101.082 432.843 101.888Z" fill="#263238"/>
<path d="M445.03 101.152C445.03 102.04 445.617 102.709 446.191 102.668C446.765 102.627 447.188 101.876 447.12 101.001C447.051 100.127 446.532 99.4305 445.959 99.4714C445.385 99.5124 444.961 100.264 445.03 101.152Z" fill="#263238"/>
<path d="M441.886 101.821C443.142 104.441 444.751 106.877 446.667 109.061C446.104 109.528 445.445 109.868 444.738 110.057C444.031 110.245 443.291 110.279 442.569 110.154L441.886 101.821Z" fill="#FF5652"/>
<path d="M438.963 112.789C437.972 112.75 436.999 112.506 436.106 112.074C435.212 111.641 434.418 111.029 433.772 110.276C433.747 110.249 433.728 110.218 433.716 110.183C433.704 110.149 433.7 110.113 433.702 110.077C433.705 110.04 433.716 110.005 433.733 109.973C433.751 109.941 433.774 109.914 433.803 109.891C433.832 109.869 433.865 109.854 433.901 109.845C433.936 109.837 433.973 109.836 434.008 109.842C434.044 109.849 434.078 109.863 434.108 109.883C434.138 109.904 434.163 109.93 434.182 109.961C434.916 110.782 435.832 111.418 436.857 111.819C437.883 112.22 438.988 112.375 440.083 112.27C440.117 112.266 440.15 112.269 440.183 112.279C440.215 112.289 440.245 112.305 440.27 112.327C440.296 112.349 440.317 112.375 440.331 112.406C440.346 112.436 440.355 112.469 440.356 112.502C440.36 112.536 440.357 112.571 440.348 112.604C440.338 112.637 440.322 112.667 440.3 112.694C440.279 112.721 440.252 112.743 440.222 112.759C440.192 112.775 440.158 112.786 440.124 112.789C439.738 112.816 439.35 112.816 438.963 112.789Z" fill="#263238"/>
<path d="M430.986 98.8966C430.898 98.8948 430.812 98.8662 430.74 98.8146C430.683 98.7786 430.634 98.7314 430.595 98.6759C430.556 98.6203 430.529 98.5576 430.515 98.4913C430.501 98.425 430.5 98.3566 430.513 98.2902C430.526 98.2237 430.552 98.1605 430.59 98.1043C431.024 97.3938 431.623 96.799 432.337 96.3708C433.05 95.9425 433.857 95.6937 434.688 95.6455C434.826 95.6455 434.958 95.7002 435.055 95.7976C435.153 95.8949 435.207 96.0269 435.207 96.1646C435.207 96.3023 435.153 96.4343 435.055 96.5316C434.958 96.629 434.826 96.6837 434.688 96.6837C434.038 96.7368 433.411 96.9443 432.857 97.2887C432.303 97.6332 431.84 98.1048 431.505 98.6644C431.451 98.7494 431.373 98.8166 431.28 98.8579C431.188 98.8991 431.086 98.9126 430.986 98.8966Z" fill="#263238"/>
<path d="M449.072 95.6886C448.985 95.6883 448.899 95.6639 448.824 95.6182C448.75 95.5724 448.689 95.507 448.649 95.4291C448.338 94.8546 447.895 94.3627 447.355 93.9944C446.816 93.6261 446.196 93.3921 445.548 93.3118C445.481 93.3084 445.414 93.2914 445.353 93.2618C445.292 93.2323 445.238 93.1908 445.193 93.1398C445.149 93.0889 445.115 93.0295 445.094 92.9651C445.073 92.9008 445.065 92.8329 445.07 92.7654C445.077 92.6301 445.137 92.503 445.236 92.4111C445.336 92.3192 445.467 92.2699 445.603 92.2736C446.423 92.3664 447.21 92.6541 447.897 93.1127C448.583 93.5713 449.15 94.1876 449.551 94.91C449.616 95.0303 449.633 95.1712 449.597 95.3035C449.562 95.4358 449.476 95.5492 449.359 95.6203C449.274 95.6746 449.173 95.6987 449.072 95.6886Z" fill="#263238"/>
<path d="M523.027 474.93C522.161 475.39 521.244 475.747 520.295 475.995C520.246 476.01 520.195 476.01 520.146 475.995C520.097 475.981 520.054 475.952 520.022 475.913C519.995 475.87 519.981 475.82 519.981 475.77C519.981 475.719 519.995 475.669 520.022 475.626C520.254 475.217 522.262 471.528 523.614 471.528C523.766 471.527 523.915 471.565 524.047 471.639C524.179 471.714 524.289 471.821 524.366 471.952C524.519 472.159 524.618 472.401 524.654 472.657C524.69 472.912 524.661 473.172 524.57 473.413C524.241 474.078 523.697 474.612 523.027 474.93ZM520.814 475.312C522.617 474.711 523.833 473.946 524.106 473.222C524.166 473.056 524.182 472.877 524.154 472.702C524.125 472.528 524.052 472.364 523.942 472.225C523.833 472.061 523.737 472.034 523.655 472.034C522.945 472.075 521.661 473.878 520.814 475.367V475.312Z" fill="#F7A600"/>
<path d="M520.446 475.982H520.309C520.263 475.979 520.218 475.963 520.179 475.937C520.141 475.91 520.11 475.874 520.091 475.831C520.091 475.708 518.725 472.826 519.298 471.296C519.362 471.108 519.466 470.936 519.603 470.792C519.739 470.648 519.906 470.536 520.091 470.463C520.26 470.367 520.457 470.333 520.648 470.365C520.84 470.398 521.014 470.495 521.143 470.641C521.948 471.597 521.224 474.739 520.541 475.859C520.526 475.91 520.492 475.954 520.446 475.982ZM520.186 471.023C520.089 471.074 520.003 471.144 519.932 471.228C519.862 471.312 519.809 471.41 519.777 471.515C519.594 472.752 519.795 474.015 520.35 475.135C520.91 473.837 521.224 471.569 520.746 471.037C520.746 471.037 520.61 470.859 520.296 471.037L520.186 471.023Z" fill="#F7A600"/>
<path d="M453.511 482.279C453.465 482.262 453.423 482.233 453.392 482.195C453.361 482.156 453.341 482.11 453.334 482.061C453.323 482.008 453.331 481.954 453.356 481.907C453.381 481.859 453.421 481.822 453.47 481.801C453.962 481.528 458.333 479.233 459.672 479.943C459.798 480.013 459.904 480.113 459.981 480.235C460.057 480.357 460.101 480.496 460.109 480.64C460.141 480.874 460.115 481.111 460.034 481.333C459.953 481.554 459.82 481.752 459.645 481.91C458.456 482.99 455.314 482.607 453.539 482.279H453.511ZM459.33 480.367C458.497 480.094 456.134 481.036 454.399 481.897C456.831 482.266 458.634 482.129 459.303 481.528C459.417 481.422 459.503 481.288 459.553 481.141C459.603 480.993 459.616 480.835 459.59 480.681C459.595 480.624 459.581 480.567 459.552 480.518C459.523 480.469 459.479 480.43 459.426 480.408L459.33 480.367Z" fill="#F7A600"/>
<path d="M453.512 482.278H453.443C453.404 482.254 453.373 482.219 453.354 482.178C453.334 482.137 453.327 482.091 453.334 482.046C453.334 481.923 453.594 478.958 454.96 477.797C455.153 477.625 455.381 477.494 455.628 477.414C455.875 477.334 456.136 477.307 456.394 477.333C457.118 477.333 457.323 477.743 457.377 478.043C457.596 479.273 455.014 481.69 453.703 482.305C453.638 482.316 453.571 482.307 453.512 482.278ZM456.626 477.852H456.353C456.162 477.834 455.97 477.857 455.789 477.918C455.608 477.979 455.442 478.078 455.301 478.207C454.507 479.173 454.03 480.361 453.935 481.608C455.301 480.775 457.022 478.876 456.899 478.139C456.89 478.061 456.853 477.99 456.795 477.937C456.737 477.885 456.663 477.855 456.585 477.852H456.626Z" fill="#F7A600"/>
<path d="M412.532 158.455C409.444 164.821 406.33 171.364 403.311 177.839C401.795 181.09 400.292 184.327 398.872 187.578C397.451 190.83 396.03 194.081 394.692 197.332C394.063 198.957 393.326 200.583 392.793 202.181L391.919 204.571C391.805 204.778 391.718 204.999 391.659 205.227C391.519 205.915 391.591 206.629 391.864 207.276C392.301 208.404 392.884 209.47 393.599 210.445C396.932 215.035 402.737 219.516 408.242 223.354L404.95 230.853C403.05 230.303 401.18 229.651 399.35 228.9C397.522 228.167 395.735 227.337 393.995 226.414C390.249 224.519 386.802 222.084 383.764 219.188C381.998 217.487 380.493 215.536 379.297 213.396C377.844 210.796 377.061 207.877 377.016 204.899C376.995 203.304 377.197 201.713 377.617 200.173L378.423 197.359C378.942 195.488 379.543 193.712 380.116 191.895C382.548 184.724 385.28 177.798 388.217 170.982C391.154 164.165 394.309 157.54 397.779 150.874L412.532 158.455Z" fill="#FF8B7B"/>
<path d="M400.483 144.167C390.47 147.309 380.635 181.227 380.635 181.227L403.775 191.349C403.775 191.349 411.274 174.957 415.577 162.116C420.262 148.115 412.599 140.37 400.483 144.167Z" fill="#F7A600"/>
<path d="M404.337 222.44L415.429 223.533L410.921 235.827C410.921 235.827 400.949 233.614 401.072 228.178L404.337 222.44Z" fill="#FF8B7B"/>
<path d="M424.99 229.05L419.129 239.213L410.838 235.88L415.359 223.531L424.99 229.05Z" fill="#FF8B7B"/>
<path d="M433.719 107.272C432.222 107.283 430.756 106.849 429.507 106.025C428.258 105.202 427.281 104.026 426.701 102.647C426.121 101.267 425.963 99.7468 426.248 98.2779C426.534 96.809 427.249 95.4579 428.303 94.396C429.357 93.3341 430.703 92.6092 432.17 92.3133C433.637 92.0173 435.158 92.1637 436.542 92.7338C437.925 93.3039 439.108 94.272 439.941 95.5155C440.773 96.7589 441.218 98.2215 441.218 99.7178C441.214 101.711 440.425 103.622 439.021 105.036C437.617 106.45 435.711 107.254 433.719 107.272ZM433.719 92.8469C432.368 92.8469 431.047 93.2474 429.924 93.9979C428.801 94.7484 427.925 95.8151 427.408 97.0631C426.891 98.3112 426.756 99.6844 427.02 101.009C427.283 102.334 427.934 103.551 428.889 104.506C429.844 105.462 431.061 106.112 432.386 106.376C433.711 106.639 435.084 106.504 436.332 105.987C437.58 105.47 438.647 104.595 439.397 103.471C440.148 102.348 440.549 101.028 440.549 99.6769C440.538 97.8726 439.813 96.1458 438.534 94.8738C437.254 93.6018 435.523 92.8878 433.719 92.8878V92.8469Z" fill="white"/>
<path d="M450.138 107.272C448.644 107.272 447.183 106.829 445.941 105.999C444.699 105.169 443.731 103.989 443.159 102.609C442.587 101.229 442.438 99.7097 442.729 98.2443C443.021 96.779 443.74 95.433 444.796 94.3766C445.853 93.3201 447.199 92.6007 448.664 92.3092C450.13 92.0177 451.648 92.1673 453.029 92.7391C454.409 93.3108 455.589 94.279 456.419 95.5213C457.249 96.7635 457.692 98.224 457.692 99.718C457.688 101.72 456.891 103.64 455.475 105.056C454.06 106.471 452.14 107.268 450.138 107.272ZM450.138 92.8471C448.787 92.8471 447.467 93.2476 446.343 93.9981C445.22 94.7486 444.345 95.8153 443.828 97.0633C443.311 98.3114 443.176 99.6846 443.439 101.01C443.703 102.334 444.353 103.551 445.308 104.507C446.264 105.462 447.481 106.112 448.805 106.376C450.13 106.639 451.504 106.504 452.752 105.987C454 105.47 455.066 104.595 455.817 103.472C456.567 102.348 456.968 101.028 456.968 99.6771C456.957 97.8728 456.233 96.146 454.953 94.874C453.673 93.602 451.942 92.888 450.138 92.888V92.8471Z" fill="white"/>
</svg>
