<svg width="25" height="24" viewBox="0 0 25 24" fill="none" xmlns="http://www.w3.org/2000/svg">
<path d="M12.5 2.49996V12M12.5 12L21 7.27767M12.5 12L4 7.27767M12.5 12V21.5M21 16.7222L13.277 12.4316C12.9934 12.2741 12.8516 12.1953 12.7015 12.1644C12.5685 12.1371 12.4315 12.1371 12.2986 12.1644C12.1484 12.1953 12.0066 12.2741 11.723 12.4316L4 16.7222M21.5 16.0585V7.94141C21.5 7.59876 21.5 7.42744 21.4495 7.27464C21.4049 7.13947 21.3318 7.01539 21.2354 6.9107C21.1263 6.79236 20.9766 6.70916 20.677 6.54276L13.277 2.43164C12.9934 2.27409 12.8516 2.19531 12.7015 2.16442C12.5685 2.13709 12.4315 2.13709 12.2986 2.16442C12.1484 2.19531 12.0066 2.27409 11.723 2.43165L4.32297 6.54276C4.02345 6.70916 3.87369 6.79236 3.76463 6.9107C3.66816 7.01539 3.59515 7.13947 3.55048 7.27465C3.5 7.42745 3.5 7.59877 3.5 7.94141V16.0585C3.5 16.4012 3.5 16.5725 3.55048 16.7253C3.59515 16.8605 3.66816 16.9845 3.76463 17.0892C3.87369 17.2076 4.02345 17.2908 4.32297 17.4572L11.723 21.5683C12.0066 21.7258 12.1484 21.8046 12.2986 21.8355C12.4315 21.8628 12.5685 21.8628 12.7015 21.8355C12.8516 21.8046 12.9934 21.7258 13.277 21.5683L20.677 17.4572C20.9766 17.2908 21.1263 17.2076 21.2354 17.0892C21.3318 16.9845 21.4049 16.8605 21.4495 16.7253C21.5 16.5725 21.5 16.4012 21.5 16.0585Z" stroke="white" stroke-width="2" stroke-linecap="round" stroke-linejoin="round"/>
</svg>
