<svg width="25" height="24" viewBox="0 0 25 24" fill="none" xmlns="http://www.w3.org/2000/svg">
<path d="M21 16H8.5M8.5 16V3.5M8.5 16L4 20.5M4 8H16.5M16.5 8V20.5M16.5 8L21 3.5M21.5 15.3373V3.8C21.5 3.51997 21.5 3.37996 21.4455 3.273C21.3976 3.17892 21.3211 3.10243 21.227 3.0545C21.12 3 20.98 3 20.7 3H9.16274C8.91815 3 8.79586 3 8.68077 3.02763C8.57873 3.05213 8.48119 3.09253 8.39172 3.14736C8.2908 3.2092 8.20432 3.29568 8.03137 3.46863L3.96863 7.53137C3.79568 7.70432 3.7092 7.7908 3.64736 7.89172C3.59253 7.98119 3.55213 8.07873 3.52763 8.18077C3.5 8.29586 3.5 8.41815 3.5 8.66274V20.2C3.5 20.48 3.5 20.62 3.5545 20.727C3.60243 20.8211 3.67892 20.8976 3.773 20.9455C3.87996 21 4.01997 21 4.3 21H15.8373C16.0818 21 16.2041 21 16.3192 20.9724C16.4213 20.9479 16.5188 20.9075 16.6083 20.8526C16.7092 20.7908 16.7957 20.7043 16.9686 20.5314L21.0314 16.4686C21.2043 16.2957 21.2908 16.2092 21.3526 16.1083C21.4075 16.0188 21.4479 15.9213 21.4724 15.8192C21.5 15.7041 21.5 15.5818 21.5 15.3373Z" stroke="white" stroke-width="2" stroke-linecap="round" stroke-linejoin="round"/>
</svg>
