<svg xmlns="http://www.w3.org/2000/svg" width="60" height="60" viewBox="0 0 60 60" fill="none">
  <path d="M34.0875 4.71686C34.3106 4.71686 34.439 4.72623 34.439 4.72623H39.3356L39.3103 10.3512H34.4466C31.77 10.3512 31.8319 12.6368 31.8319 12.6368V21.5543H41.3025L39.9806 27.1718H31.801V55.2837H26.1816L26.1778 27.1718H18.7125L18.6975 21.5543H26.1806V12.813C26.1815 5.19117 32.5116 4.71686 34.0875 4.71686ZM34.0875 0.966797C32.7394 0.966797 30.1049 1.18998 27.6093 2.69373C25.2468 4.11498 22.4315 7.02586 22.4315 12.8122V17.8034H18.6983C17.7018 17.8034 16.7465 18.2009 16.0415 18.9059C15.6931 19.2556 15.4173 19.6707 15.2297 20.1273C15.0421 20.5838 14.9465 21.0729 14.9484 21.5665L14.9634 27.184C14.9709 29.2494 16.6481 30.9209 18.7134 30.9209H22.4287L22.4325 55.2828C22.4325 57.3537 24.1116 59.0328 26.1825 59.0328H31.8019C33.8728 59.0328 35.5519 57.3537 35.5519 55.2828V30.9209H39.9816C41.6456 30.9209 43.1109 29.824 43.5796 28.2275L44.9015 22.61C45.2343 21.4766 45.013 20.2513 44.3043 19.3072C43.9556 18.8403 43.5027 18.4613 42.9818 18.2002C42.4608 17.9392 41.8861 17.8033 41.3033 17.8034H35.5827V14.1031L39.3111 14.1012C41.3746 14.1012 43.0518 12.4334 43.0611 10.3681L43.0864 4.93342C43.0902 4.86442 43.0921 4.79533 43.0921 4.72623C43.0921 2.65529 41.4168 0.97623 39.3459 0.97623H34.545C34.4371 0.970605 34.2815 0.966855 34.0875 0.966797Z" fill="#F7A600"/>
</svg>