<svg width="84" height="28" viewBox="0 0 84 28" fill="none" xmlns="http://www.w3.org/2000/svg">
<g clip-path="url(#clip0_363_334)">
<path d="M35.7466 14.3591C35.7466 18.2457 32.6614 21.1096 28.8752 21.1096C25.0891 21.1096 22.0039 18.2457 22.0039 14.3591C22.0039 10.4452 25.0891 7.6087 28.8752 7.6087C32.6614 7.6087 35.7466 10.4452 35.7466 14.3591ZM32.7386 14.3591C32.7386 11.9304 30.9505 10.2687 28.8752 10.2687C26.7999 10.2687 25.0118 11.9304 25.0118 14.3591C25.0118 16.7635 26.7999 18.4496 28.8752 18.4496C30.9505 18.4496 32.7386 16.7604 32.7386 14.3591Z" fill="#EA4335"/>
<path d="M50.5698 14.3591C50.5698 18.2457 47.4846 21.1096 43.6985 21.1096C39.9123 21.1096 36.8271 18.2457 36.8271 14.3591C36.8271 10.4483 39.9123 7.6087 43.6985 7.6087C47.4846 7.6087 50.5698 10.4452 50.5698 14.3591ZM47.5619 14.3591C47.5619 11.9304 45.7738 10.2687 43.6985 10.2687C41.6232 10.2687 39.8351 11.9304 39.8351 14.3591C39.8351 16.7635 41.6232 18.4496 43.6985 18.4496C45.7738 18.4496 47.5619 16.7604 47.5619 14.3591Z" fill="#FBBC05"/>
<path d="M64.7757 8.01653V20.1357C64.7757 25.1209 61.7925 27.157 58.2657 27.157C54.9459 27.157 52.9478 24.9687 52.1942 23.1791L54.8131 22.1048C55.2794 23.2035 56.422 24.5 58.2626 24.5C60.5201 24.5 61.9191 23.1274 61.9191 20.5435V19.5726H61.8141C61.1409 20.3913 59.8438 21.1065 58.207 21.1065C54.7822 21.1065 51.6445 18.1665 51.6445 14.3835C51.6445 10.5731 54.7822 7.6087 58.207 7.6087C59.8407 7.6087 61.1378 8.32392 61.8141 9.11827H61.9191V8.01957H64.7757V8.01653ZM62.1322 14.3835C62.1322 12.0065 60.5232 10.2687 58.4757 10.2687C56.4004 10.2687 54.6617 12.0065 54.6617 14.3835C54.6617 16.7361 56.4004 18.4496 58.4757 18.4496C60.5232 18.4496 62.1322 16.7361 62.1322 14.3835Z" fill="#4285F4"/>
<path d="M69.4856 0.913025V20.6956H66.5518V0.913025H69.4856Z" fill="#34A853"/>
<path d="M80.9176 16.5809L83.2523 18.1148C82.4988 19.2135 80.6829 21.1065 77.5453 21.1065C73.6541 21.1065 70.748 18.1422 70.748 14.3561C70.748 10.3417 73.6788 7.60565 77.2086 7.60565C80.7632 7.60565 82.5019 10.3935 83.0701 11.9L83.382 12.667L74.2254 16.4043C74.9264 17.7587 76.0166 18.4496 77.5453 18.4496C79.077 18.4496 80.1394 17.707 80.9176 16.5809ZM73.7313 14.1522L79.8522 11.6474C79.5156 10.8043 78.5026 10.217 77.3105 10.217C75.7819 10.217 73.6541 11.547 73.7313 14.1522Z" fill="#EA4335"/>
<path d="M10.8985 12.6031V9.73915H20.6913C20.7871 10.2383 20.8365 10.8287 20.8365 11.4678C20.8365 13.6165 20.2404 16.2735 18.3196 18.1665C16.4512 20.0839 14.064 21.1065 10.9016 21.1065C5.04015 21.1065 0.111328 16.4013 0.111328 10.6248C0.111328 4.84828 5.04015 0.143066 10.9016 0.143066C14.1443 0.143066 16.4543 1.39698 18.1899 3.03133L16.1393 5.0522C14.8947 3.90176 13.2085 3.00698 10.8985 3.00698C6.61824 3.00698 3.27059 6.40654 3.27059 10.6248C3.27059 14.8431 6.61824 18.2426 10.8985 18.2426C13.6749 18.2426 15.256 17.1439 16.269 16.1457C17.0904 15.3361 17.6309 14.1796 17.844 12.6L10.8985 12.6031Z" fill="#4285F4"/>
</g>
<defs>
<clipPath id="clip0_363_334">
<rect width="84" height="28" fill="white"/>
</clipPath>
</defs>
</svg>
