<svg width="83" height="84" viewBox="0 0 83 84" fill="none" xmlns="http://www.w3.org/2000/svg">
<path d="M0 18.5714C0 8.75806 7.95531 0.802734 17.7687 0.802734H65.1518C74.9652 0.802734 82.9205 8.75804 82.9205 18.5714V65.9545C82.9205 75.7679 74.9652 83.7232 65.1518 83.7232H17.7687C7.95532 83.7232 0 75.7679 0 65.9545V18.5714Z" fill="#FBF0DA"/>
<path d="M43.9725 23.1533C40.8036 23.1922 37.5162 24.392 34.4982 26.8732H41.0144V30.3704C45.2867 27.9614 50.2937 27.8125 54.2896 30.3729L52.8168 31.16L58.055 35.2671L57.7514 28.5206L55.613 29.6645C52.7957 25.4848 48.6698 23.2054 44.2864 23.1533C44.1818 23.152 44.0772 23.152 43.9726 23.1533H43.9725ZM22.2706 28.3864V45.6143H39.5011V28.3864H22.2708H22.2706ZM26.3423 30.4943H37.3931V41.7451H35.8774V32.0076H26.3424V30.4943L26.3423 30.4943ZM26.6131 33.5816L33.9086 41.0189L32.8281 42.0792L25.5325 34.6419L26.6131 33.5816ZM43.3475 38.5819V55.8124H60.5754V38.5821H43.3475V38.5819ZM47.4166 40.6925H58.4674V51.9406H56.9543V42.2056H47.4168L47.4167 40.6924L47.4166 40.6925ZM47.6874 43.7772L54.9854 51.217L53.905 52.2747L46.607 44.8375L47.6875 43.7773L47.6874 43.7772ZM25.1328 48.9319L25.4365 55.6783L27.3242 54.6685C32.2579 61.8461 41.0895 63.2913 48.3479 57.3257H41.8342V53.8284C37.6169 56.2075 32.6838 56.3828 28.7135 53.9246L30.3683 53.0389L25.1328 48.9319Z" fill="#F7A600"/>
</svg>
