<svg width="84" height="84" viewBox="0 0 84 84" fill="none" xmlns="http://www.w3.org/2000/svg">
<path d="M0.421631 18.632C0.421631 8.8186 8.37694 0.863281 18.1903 0.863281H65.5734C75.3868 0.863281 83.3421 8.81859 83.3421 18.632V66.0151C83.3421 75.8284 75.3868 83.7838 65.5734 83.7838H18.1903C8.37695 83.7838 0.421631 75.8285 0.421631 66.0151V18.632Z" fill="#FBF0DA"/>
<path d="M40.8946 30.4785H32.0102C30.963 30.4785 29.9587 30.8945 29.2182 31.635C28.4777 32.3755 28.0616 33.3799 28.0616 34.4271V52.1958C28.0616 53.243 28.4777 54.2474 29.2182 54.9879C29.9587 55.7284 30.963 56.1444 32.0102 56.1444H51.7532C52.8004 56.1444 53.8048 55.7284 54.5453 54.9879C55.2858 54.2474 55.7018 53.243 55.7018 52.1958V43.3114" stroke="#F7A600" stroke-width="1.9743" stroke-linecap="round" stroke-linejoin="round"/>
<path d="M51.7532 32.4529L53.6347 34.4272M55.7018 28.4391C56.2291 28.9828 56.5212 29.7123 56.5149 30.4696C56.5086 31.227 56.2045 31.9515 55.6683 32.4864L41.8818 46.2729L35.9589 48.2472L37.9332 42.3243L51.7276 28.4134C52.2127 27.9252 52.8616 27.6339 53.5489 27.596C54.2362 27.5581 54.9132 27.7762 55.4491 28.2081L55.7018 28.4391Z" stroke="#F7A600" stroke-width="1.9743" stroke-linecap="round" stroke-linejoin="round"/>
</svg>
