<svg width="84" height="84" viewBox="0 0 84 84" fill="none" xmlns="http://www.w3.org/2000/svg">
<path d="M0.74585 18.632C0.74585 8.8186 8.70116 0.863281 18.5145 0.863281H65.8976C75.711 0.863281 83.6663 8.81859 83.6663 18.632V66.0151C83.6663 75.8284 75.711 83.7838 65.8977 83.7838H18.5145C8.70117 83.7838 0.74585 75.8285 0.74585 66.0151V18.632Z" fill="#FBF0DA"/>
<path d="M29.0951 46.6885L34.9721 40.8115L39.8592 45.6987L45.3129 40.2449L42.2155 37.1475H50.8531V45.785L47.7556 42.6876L39.8592 50.5841L34.9721 45.6987L30.6982 49.9725C32.6389 52.8935 35.6175 54.9674 39.0304 55.7741C42.4433 56.5807 46.0352 56.0597 49.0782 54.3167C52.1213 52.5736 54.3879 49.7389 55.4188 46.3869C56.4496 43.0349 56.1676 39.4164 54.6298 36.2646C53.0921 33.1128 50.4136 30.6635 47.1373 29.413C43.8609 28.1625 40.2316 28.2043 36.9849 29.53C33.7382 30.8557 31.117 33.3661 29.6523 36.5525C28.1876 39.7388 27.989 43.3629 29.0968 46.6903M26.4416 49.3817L26.4243 49.3644L26.4313 49.3575C25.4482 47.1458 24.9408 44.7521 24.9421 42.3317C24.9421 32.7907 32.6762 25.0566 42.2172 25.0566C51.7583 25.0566 59.4923 32.7907 59.4923 42.3317C59.4923 51.8728 51.7583 59.6068 42.2172 59.6068C35.1863 59.6068 29.14 55.409 26.4416 49.3817Z" fill="#F7A600"/>
</svg>
