<svg width="83" height="84" viewBox="0 0 83 84" fill="none" xmlns="http://www.w3.org/2000/svg">
<path d="M0 18.5714C0 8.75806 7.95531 0.802734 17.7687 0.802734H65.1518C74.9652 0.802734 82.9205 8.75804 82.9205 18.5714V65.9545C82.9205 75.7679 74.9652 83.7232 65.1518 83.7232H17.7687C7.95532 83.7232 0 75.7679 0 65.9545V18.5714Z" fill="#FBF0DA"/>
<path d="M34.9826 28.0112V38.5758L41.3053 42.0014C41.353 42.0275 41.4064 42.0412 41.4608 42.0412C41.5151 42.0412 41.5686 42.0275 41.6163 42.0014L47.9389 38.5758V28.0112H34.9826ZM24.6176 29.6307C24.6176 28.514 25.0612 27.4429 25.8509 26.6532C26.6405 25.8636 27.7116 25.4199 28.8284 25.4199H54.0932C55.21 25.4199 56.281 25.8636 57.0707 26.6532C57.8604 27.4429 58.304 28.514 58.304 29.6307V32.6288C58.304 33.6208 58.036 34.5944 57.5283 35.4466C57.0207 36.2989 56.2922 36.9982 55.4199 37.4706L45.073 43.0755C46.7999 43.8957 48.1964 45.279 49.0328 46.998C49.8693 48.7171 50.096 50.6696 49.6756 52.5345C49.2553 54.3995 48.2129 56.066 46.7198 57.26C45.2268 58.4539 43.3719 59.1044 41.4601 59.1044C39.5484 59.1044 37.6935 58.4539 36.2004 57.26C34.7074 56.066 33.665 54.3995 33.2446 52.5345C32.8243 50.6696 33.0509 48.7171 33.8874 46.998C34.7239 45.279 36.1204 43.8957 37.8473 43.0755L27.5016 37.4693C26.6295 36.997 25.9012 36.2979 25.3936 35.4459C24.8859 34.5939 24.6178 33.6206 24.6176 32.6288V29.6307ZM35.6304 50.6848C35.6304 52.2311 36.2447 53.714 37.3381 54.8074C38.4315 55.9008 39.9145 56.5151 41.4608 56.5151C43.0071 56.5151 44.4901 55.9008 45.5835 54.8074C46.6769 53.714 47.2911 52.2311 47.2911 50.6848C47.2911 49.1385 46.6769 47.6555 45.5835 46.5621C44.4901 45.4687 43.0071 44.8544 41.4608 44.8544C39.9145 44.8544 38.4315 45.4687 37.3381 46.5621C36.2447 47.6555 35.6304 49.1385 35.6304 50.6848Z" fill="#F7A600"/>
</svg>
