<svg xmlns="http://www.w3.org/2000/svg" width="60" height="60" viewBox="0 0 60 60" fill="none">
  <path d="M6.25 30C6.25 18.805 6.25 13.205 9.7275 9.7275C13.205 6.25 18.8025 6.25 30 6.25C41.195 6.25 46.795 6.25 50.2725 9.7275C53.75 13.205 53.75 18.8025 53.75 30C53.75 41.195 53.75 46.795 50.2725 50.2725C46.795 53.75 41.1975 53.75 30 53.75C18.805 53.75 13.205 53.75 9.7275 50.2725C6.25 46.795 6.25 41.1975 6.25 30Z" stroke="#F7A600" stroke-width="2.59125" stroke-linecap="round" stroke-linejoin="round"/>
  <path d="M43.77 16.25H43.745M41.25 30C41.25 32.9837 40.0647 35.8452 37.955 37.955C35.8452 40.0647 32.9837 41.25 30 41.25C27.0163 41.25 24.1548 40.0647 22.045 37.955C19.9353 35.8452 18.75 32.9837 18.75 30C18.75 27.0163 19.9353 24.1548 22.045 22.045C24.1548 19.9353 27.0163 18.75 30 18.75C32.9837 18.75 35.8452 19.9353 37.955 22.045C40.0647 24.1548 41.25 27.0163 41.25 30Z" stroke="#F7A600" stroke-width="2.59125" stroke-linecap="round" stroke-linejoin="round"/>
</svg>