<svg xmlns="http://www.w3.org/2000/svg" width="60" height="60" viewBox="0 0 60 60" fill="none">
  <g clip-path="url(#clip0_851_1327)">
    <path d="M58.4646 58.7366H46.2756C45.4134 58.7366 44.7166 58.0398 44.7166 57.1776V37.5477C44.7166 30.8154 41.2441 30.8154 40.0985 30.8154C37.0158 30.8154 35.7047 33.2485 35.2795 34.2997C35.0787 34.7722 34.9842 35.5753 34.9842 36.6974V57.1895C34.9842 58.0517 34.2874 58.7485 33.4253 58.7485H21.2245C20.8111 58.7485 20.4095 58.5832 20.1142 58.288C19.819 57.9928 19.6536 57.591 19.6654 57.1776C19.6654 56.847 19.8308 23.9297 19.6654 20.5635C19.6418 20.1383 19.7953 19.7249 20.0906 19.4178C20.3859 19.1107 20.7875 18.9336 21.2244 18.9336H33.4253C34.2874 18.9336 34.9843 19.6304 34.9843 20.4926V21.4138C37.0394 19.5831 40.0039 18.0713 44.4213 18.0713C54.189 18.0713 60.0236 24.8271 60.0236 36.1421V57.1776C60.0236 58.0398 59.3268 58.7366 58.4646 58.7366ZM47.8347 55.6186L56.9174 55.6183V36.142C56.9174 26.6341 52.3702 21.1892 44.4331 21.1892C39.13 21.1892 36.5552 23.8349 34.9371 26.2562C34.7481 26.894 34.1457 27.3665 33.4371 27.3665H33.3544C32.7874 27.3665 32.2678 27.0593 31.9962 26.5633C31.7836 26.1735 31.7363 25.7247 31.878 25.3113V22.0397H22.819C22.9017 28.5476 22.819 49.6067 22.7954 55.6067H31.8662V36.6854C31.8662 35.1146 32.0316 33.9807 32.3859 33.1185C33.756 29.7288 36.6378 27.6855 40.0867 27.6855C45.0001 27.6855 47.8228 31.2761 47.8228 37.5358V55.6185H47.8348L47.8347 55.6186ZM14.4804 58.7363H2.27959C1.41738 58.7363 0.720586 58.0395 0.720586 57.1773V20.4924C0.720586 19.6302 1.41738 18.9334 2.27959 18.9334H14.4804C15.3426 18.9334 16.0394 19.6302 16.0394 20.4924V57.1774C16.0394 58.0396 15.3426 58.7365 14.4804 58.7365V58.7363ZM3.83871 55.6184H12.9213V22.0514H3.83877L3.83871 55.6184ZM8.38588 17.0436L8.30315 17.0435C3.49605 17.0435 0 13.7128 0 9.13012C0 4.55928 3.55512 1.22852 8.4685 1.22852C13.2992 1.22852 16.7481 4.46471 16.8426 9.09467C16.8426 13.7128 13.2875 17.0436 8.38588 17.0436ZM8.4685 4.35848C5.2677 4.35848 3.11813 6.28369 3.11813 9.14201C3.11813 11.953 5.24414 13.9254 8.3032 13.9254H8.38582C11.5748 13.9254 13.7244 12.0002 13.7244 9.14195C13.6654 6.24824 11.5985 4.35848 8.4685 4.35848Z" fill="#F7A600"/>
  </g>
  <defs>
    <clipPath id="clip0_851_1327">
      <rect width="60" height="60" fill="white"/>
    </clipPath>
  </defs>
</svg>