<svg xmlns="http://www.w3.org/2000/svg" width="30" height="30" viewBox="0 0 30 30" fill="none">
  <path d="M29.6663 7.00004V1.66671C29.6663 1.31309 29.5259 0.973946 29.2758 0.723897C29.0258 0.473849 28.6866 0.333374 28.333 0.333374H1.66634C1.31272 0.333374 0.97358 0.473849 0.723531 0.723897C0.473483 0.973946 0.333008 1.31309 0.333008 1.66671V7.00004H29.6663Z" fill="#1DB5BE"/>
  <path d="M0.333008 9.66675V28.3334C0.333008 28.687 0.473483 29.0262 0.723531 29.2762C0.97358 29.5263 1.31272 29.6667 1.66634 29.6667H8.33301V9.66675H0.333008Z" fill="#C4B5FD"/>
  <path d="M11 29.6667H28.3333C28.687 29.6667 29.0261 29.5263 29.2761 29.2762C29.5262 29.0262 29.6667 28.687 29.6667 28.3334V9.66675H11V29.6667Z" fill="#7C3AED"/>
</svg>