<svg xmlns="http://www.w3.org/2000/svg" width="43" height="41" viewBox="0 0 43 41" fill="none">
  <g clip-path="url(#clip0_278_1217)">
    <path fill-rule="evenodd" clip-rule="evenodd" d="M38.5517 15.541C36.4591 13.5537 33.5039 11.8982 29.6695 10.8471H29.6473C20.5232 8.35557 17.2724 14.2489 24.6604 17.9639C33.0477 22.1758 34.2131 29.0739 29.4793 33.3877C28.2732 34.4852 24.3538 36.5392 20.7485 37.0323C15.0228 37.8295 8.6691 36.6078 3.50488 34.9616C6.31368 37.1514 9.52353 38.7664 12.9523 39.7148C21.0034 41.9394 30.7278 40.3006 37.172 34.678C43.6624 29.0071 44.283 20.969 38.5517 15.541ZM29.6732 10.849L29.7563 10.8731L29.6732 10.849Z" fill="#F7A600"/>
    <path fill-rule="evenodd" clip-rule="evenodd" d="M12.1306 2.24705C16.5743 0.42912 21.4154 -0.187098 26.1706 0.459915C30.9258 1.10693 35.4287 2.99454 39.2298 5.93431C29.5884 2.85696 22.1081 3.12391 17.2006 5.10565L17.1286 5.13531C11.0686 7.62314 8.96851 12.7156 11.606 17.3205C13.0264 19.8027 15.5309 21.6584 18.0705 22.932C24.7862 26.3078 22.7213 31.4781 15.4496 30.5327C14.6426 30.4247 13.844 30.2605 13.0596 30.0414C-1.21955 26.128 -3.30851 13.9576 5.5608 6.21794C7.5187 4.54131 9.73832 3.19973 12.1306 2.24705Z" fill="#F7A600"/>
  </g>
  <defs>
    <clipPath id="clip0_278_1217">
      <rect width="42.2188" height="40.4597" fill="white" transform="translate(0.258789 0.205444)"/>
    </clipPath>
  </defs>
</svg>