<svg width="459" height="125" viewBox="0 0 459 125" fill="none" xmlns="http://www.w3.org/2000/svg">
<path fill-rule="evenodd" clip-rule="evenodd" d="M57.5866 120.345C89.3908 120.345 115.173 94.5623 115.173 62.7581C115.173 30.9539 89.3908 5.17151 57.5866 5.17151C25.7824 5.17151 0 30.9539 0 62.7581C0 94.5623 25.7824 120.345 57.5866 120.345ZM57.5859 103.069C79.8489 103.069 97.8965 85.0211 97.8965 62.7582C97.8965 60.9358 97.7757 59.1418 97.5413 57.3835H71.0228V49.3213H44.149V57.3835H29.8798C32.3894 44.37 43.8398 34.5408 57.5859 34.5408C66.574 34.5408 74.5806 38.7432 79.7481 45.2903H93.9255C87.417 31.7749 73.5908 22.4476 57.5859 22.4476C35.323 22.4476 17.2753 40.4953 17.2753 62.7582C17.2753 65.0472 17.4661 67.2918 17.8327 69.4766H44.149V76.1951H71.0228V69.4766H84.9986C81.9846 81.8171 70.8548 90.9756 57.5859 90.9756C49.2289 90.9756 41.7203 87.3426 36.5535 81.5698H21.9247C28.6834 94.3558 42.1171 103.069 57.5859 103.069ZM50.8675 56.0398H64.3044V69.4766H50.8675V56.0398Z" fill="#FBBC05"/>
<path d="M160.326 94C155.592 94 152.112 93.7912 149.884 93.3735C147.656 92.9558 146.542 92.4685 146.542 91.9115L150.719 82.8267C152.321 83.1051 156.289 83.3836 162.624 83.6621C169.028 83.8709 177.8 83.9753 188.938 83.9753H190.922C193.916 83.9753 196.039 83.4532 197.292 82.409C198.545 81.2951 199.172 79.4503 199.172 76.8745V74.786C199.172 72.3495 198.65 70.6091 197.606 69.5649C196.631 68.5206 194.403 67.9985 190.922 67.9985H166.696C159.665 67.9985 154.548 66.7106 151.346 64.1348C148.144 61.4894 146.542 57.208 146.542 51.2907V49.6199C146.542 46.5568 147.099 43.7374 148.213 41.1616C149.397 38.5858 151.381 36.5322 154.165 35.0006C156.95 33.3994 160.779 32.5989 165.652 32.5989H194.055C198.789 32.5989 202.618 32.8425 205.542 33.3298C208.466 33.8171 209.928 34.3393 209.928 34.8962L207.839 43.6678C206.029 43.4589 201.922 43.2501 195.517 43.0412C189.112 42.7628 180.515 42.6235 169.724 42.6235L168.576 42.5191C165.373 42.5191 163.215 43.1805 162.102 44.5032C160.988 45.7562 160.396 47.3574 160.326 49.3067V51.0819C160.326 53.3792 160.953 55.1196 162.206 56.303C163.529 57.4169 165.687 57.9738 168.68 57.9738H191.862C196.318 57.9738 200.112 58.4263 203.244 59.3313C206.377 60.2363 208.779 61.9071 210.45 64.3437C212.12 66.7106 212.956 70.2262 212.956 74.8905V76.5612C212.956 81.7824 211.598 85.9942 208.883 89.1965C206.238 92.3988 201.608 94 194.995 94H160.326ZM228.605 94V40.9528L227.561 32.4944H273.82C278.276 32.4944 281.756 33.0862 284.263 34.2696C286.838 35.4531 288.718 37.0195 289.901 38.9687C291.155 40.8483 291.955 42.8672 292.303 45.0253C292.651 47.1834 292.825 49.237 292.825 51.1863V57.3473C292.825 58.9484 292.582 60.7585 292.094 62.7773C291.607 64.7266 290.702 66.641 289.379 68.5206C288.057 70.3306 286.142 71.8622 283.636 73.1153C281.13 74.2987 277.858 74.8905 273.82 74.8905H263.169C258.783 74.8905 254.676 74.786 250.847 74.5772C247.088 74.3683 244.268 74.1943 242.389 74.0551V94H228.605ZM242.389 64.8658H270.792C273.925 64.8658 276.083 64.1 277.266 62.5685C278.45 61.0369 279.041 59.1921 279.041 57.034V50.4553C279.041 48.2276 278.45 46.348 277.266 44.8164C276.083 43.2849 273.959 42.5191 270.896 42.5191H242.389V64.8658ZM325.473 94C320.6 94 316.771 93.3038 313.987 91.9115C311.202 90.5192 309.218 88.4307 308.034 85.6461C306.921 82.8615 306.364 79.4155 306.364 75.3082V51.1863C306.364 47.1486 306.921 43.7722 308.034 41.0572C309.148 38.2725 311.098 36.1841 313.882 34.7918C316.667 33.3298 320.531 32.5989 325.473 32.5989H355.965C360.838 32.5989 364.632 33.3298 367.347 34.7918C370.132 36.1841 372.081 38.2725 373.195 41.0572C374.378 43.7722 374.97 47.1486 374.97 51.1863V75.3082C374.97 81.4343 373.613 86.0986 370.898 89.3009C368.183 92.4336 363.205 94 355.965 94H325.473ZM328.502 83.9753H353.041C355.617 83.9753 357.601 83.314 358.993 81.9913C360.455 80.6686 361.186 78.8586 361.186 76.5612V49.9332C361.186 47.9143 360.455 46.2088 358.993 44.8164C357.531 43.3545 355.547 42.6235 353.041 42.6235H328.502C325.995 42.6235 323.976 43.2849 322.445 44.6076C320.913 45.9303 320.148 47.7055 320.148 49.9332V76.5612C320.148 78.9282 320.879 80.773 322.341 82.0957C323.872 83.3488 325.926 83.9753 328.502 83.9753ZM381.271 94L385.239 87.7346L408.422 63.2994L381.271 32.5989H397.979L418.133 55.6765H419.282L439.54 32.5989H456.248L452.175 38.7599L429.097 63.2994L456.248 94H439.54L419.282 70.7135H418.133L397.979 94H381.271Z" fill="#FBBC05"/>
</svg>
