<svg width="116" height="116" viewBox="0 0 116 116" fill="none" xmlns="http://www.w3.org/2000/svg">
<path fill-rule="evenodd" clip-rule="evenodd" d="M57.5866 115.345C89.3908 115.345 115.173 89.5623 115.173 57.7581C115.173 25.9539 89.3908 0.171509 57.5866 0.171509C25.7824 0.171509 0 25.9539 0 57.7581C0 89.5623 25.7824 115.345 57.5866 115.345ZM57.5859 98.0688C79.8489 98.0688 97.8965 80.0211 97.8965 57.7582C97.8965 55.9358 97.7757 54.1418 97.5413 52.3835H71.0228V44.3213H44.149V52.3835H29.8798C32.3894 39.37 43.8398 29.5408 57.5859 29.5408C66.574 29.5408 74.5806 33.7432 79.7481 40.2903H93.9255C87.417 26.7749 73.5908 17.4476 57.5859 17.4476C35.323 17.4476 17.2753 35.4953 17.2753 57.7582C17.2753 60.0472 17.4661 62.2918 17.8327 64.4766H44.149V71.1951H71.0228V64.4766H84.9986C81.9846 76.8171 70.8548 85.9756 57.5859 85.9756C49.2289 85.9756 41.7203 82.3426 36.5535 76.5698H21.9247C28.6834 89.3558 42.1171 98.0688 57.5859 98.0688ZM50.8675 51.0398H64.3044V64.4766H50.8675V51.0398Z" fill="#FBBC05"/>
</svg>
