<svg width="25" height="24" viewBox="0 0 25 24" fill="none" xmlns="http://www.w3.org/2000/svg">
<path d="M12.5 2L11.1985 7.20599C10.9445 8.22185 10.8176 8.72978 10.5531 9.14309C10.3192 9.50868 10.0087 9.81915 9.64309 10.0531C9.22978 10.3176 8.72185 10.4445 7.70599 10.6985L2.5 12L7.70599 13.3015C8.72185 13.5555 9.22978 13.6824 9.64309 13.9469C10.0087 14.1808 10.3192 14.4913 10.5531 14.8569C10.8176 15.2702 10.9445 15.7782 11.1985 16.794L12.5 22L13.8015 16.794C14.0555 15.7782 14.1824 15.2702 14.4469 14.8569C14.6808 14.4913 14.9913 14.1808 15.3569 13.9469C15.7702 13.6824 16.2782 13.5555 17.294 13.3015L22.5 12L17.294 10.6985C16.2782 10.4445 15.7702 10.3176 15.3569 10.0531C14.9913 9.81915 14.6808 9.50868 14.4469 9.14309C14.1824 8.72978 14.0555 8.22185 13.8015 7.20599L12.5 2Z" stroke="white" stroke-width="2" stroke-linecap="round" stroke-linejoin="round"/>
</svg>
