<svg xmlns="http://www.w3.org/2000/svg" width="28" height="32" viewBox="0 0 28 32" fill="none">
  <path d="M26.0003 32.0001H14.0003C13.6467 32.0001 13.3076 31.8596 13.0575 31.6096C12.8075 31.3595 12.667 31.0204 12.667 30.6667V28.0001C12.667 27.6465 12.8075 27.3073 13.0575 27.0573C13.3076 26.8072 13.6467 26.6667 14.0003 26.6667H26.0003C26.3539 26.6667 26.6931 26.8072 26.9431 27.0573C27.1932 27.3073 27.3337 27.6465 27.3337 28.0001V30.6667C27.3337 31.0204 27.1932 31.3595 26.9431 31.6096C26.6931 31.8596 26.3539 32.0001 26.0003 32.0001Z" fill="#C4B5FD"/>
  <path d="M26.0003 0H2.00033C1.6467 0 1.30756 0.140475 1.05752 0.390523C0.807467 0.640572 0.666992 0.979711 0.666992 1.33333V4C0.666992 4.35362 0.807467 4.69276 1.05752 4.94281C1.30756 5.19286 1.6467 5.33333 2.00033 5.33333H26.0003C26.3539 5.33333 26.6931 5.19286 26.9431 4.94281C27.1932 4.69276 27.3337 4.35362 27.3337 4V1.33333C27.3337 0.979711 27.1932 0.640572 26.9431 0.390523C26.6931 0.140475 26.3539 0 26.0003 0Z" fill="#1DB5BE"/>
  <path d="M26.0003 8H2.00033C1.6467 8 1.30756 8.14047 1.05752 8.39052C0.807467 8.64057 0.666992 8.97971 0.666992 9.33333V22.6667C0.666992 23.0203 0.807467 23.3594 1.05752 23.6095C1.30756 23.8595 1.6467 24 2.00033 24H26.0003C26.3539 24 26.6931 23.8595 26.9431 23.6095C27.1932 23.3594 27.3337 23.0203 27.3337 22.6667V9.33333C27.3337 8.97971 27.1932 8.64057 26.9431 8.39052C26.6931 8.14047 26.3539 8 26.0003 8Z" fill="#7C3AED"/>
</svg>