<svg xmlns="http://www.w3.org/2000/svg" width="60" height="60" viewBox="0 0 60 60" fill="none">
  <path fill-rule="evenodd" clip-rule="evenodd" d="M48.6012 11.379C46.1743 8.95098 43.2911 7.02693 40.1177 5.71764C36.9442 4.40835 33.5431 3.73968 30.1102 3.75012C15.7031 3.75012 3.975 15.4197 3.96914 29.7657C3.96271 34.3339 5.16686 38.8221 7.45898 42.7736L3.75 56.2501L17.6074 52.6325C21.4432 54.7107 25.7371 55.7983 30.0996 55.7966H30.1102C44.516 55.7966 56.243 44.1259 56.25 29.781C56.2587 26.3598 55.587 22.971 54.2739 19.8118C52.9607 16.6526 51.0324 13.7861 48.6012 11.379ZM30.1102 51.4056H30.1008C26.2118 51.4067 22.3935 50.366 19.043 48.3915L18.2496 47.9228L10.0266 50.0697L12.2215 42.0904L11.7047 41.27C9.53014 37.8273 8.37802 33.8378 8.38242 29.7657C8.38242 17.8443 18.1336 8.14465 30.1184 8.14465C35.8676 8.13439 41.3854 10.4082 45.4583 14.4659C49.5312 18.5236 51.8255 24.0329 51.8367 29.7822C51.832 41.7048 42.0855 51.4056 30.1102 51.4056ZM42.027 35.2114C41.3742 34.8857 38.1598 33.313 37.5645 33.0962C36.9691 32.8794 36.5297 32.7704 36.0949 33.422C35.6602 34.0736 34.4074 35.5314 34.0266 35.9708C33.6457 36.4103 33.2648 36.4583 32.6121 36.1325C31.9594 35.8068 29.8535 35.1212 27.3586 32.9064C25.4168 31.1825 24.1066 29.0544 23.7258 28.404C23.3449 27.7536 23.6848 27.4009 24.0117 27.0775C24.3059 26.7857 24.6645 26.3181 24.9914 25.9384C25.3184 25.5587 25.4273 25.2868 25.6441 24.8532C25.8609 24.4197 25.7531 24.04 25.5902 23.7154C25.4273 23.3907 24.1207 20.1904 23.577 18.8884C23.0461 17.6204 22.5082 17.7927 22.1074 17.7728C21.7266 17.754 21.2871 17.7493 20.8547 17.7493C20.5241 17.7579 20.1989 17.8346 19.8992 17.9745C19.5996 18.1145 19.3321 18.3147 19.1133 18.5626C18.5145 19.2142 16.827 20.7892 16.827 23.9861C16.827 27.1829 19.1707 30.2767 19.4941 30.7103C19.8176 31.1439 24.0996 37.7099 30.6516 40.5259C31.8682 41.0469 33.1113 41.5038 34.3758 41.8947C35.9402 42.3892 37.3641 42.32 38.4891 42.1525C39.7441 41.9661 42.3563 40.5798 42.8988 39.0611C43.4414 37.5423 43.4426 36.2415 43.2797 35.9708C43.1168 35.7001 42.6809 35.5361 42.027 35.2114Z" fill="#F7A600"/>
</svg>