<svg xmlns="http://www.w3.org/2000/svg" width="60" height="60" viewBox="0 0 60 60" fill="none">
  <path fill-rule="evenodd" clip-rule="evenodd" d="M49.3825 11.6475C49.5987 11.4003 49.7641 11.1129 49.8692 10.8018C49.9743 10.4907 50.0171 10.1619 49.9952 9.8342C49.9733 9.50652 49.887 9.18638 49.7413 8.89204C49.5957 8.5977 49.3935 8.33494 49.1463 8.11875C48.899 7.90256 48.6117 7.73718 48.3005 7.63205C47.9894 7.52693 47.6606 7.48411 47.3329 7.50605C47.0053 7.52798 46.6851 7.61425 46.3908 7.75991C46.0965 7.90558 45.8337 8.10779 45.6175 8.355L32.8425 22.955L22 8.5C21.7671 8.18951 21.4652 7.9375 21.118 7.76393C20.7709 7.59036 20.3881 7.5 20 7.5H10C9.53572 7.5 9.08061 7.62929 8.68567 7.87337C8.29073 8.11746 7.97157 8.4667 7.76393 8.88197C7.5563 9.29723 7.46841 9.76211 7.5101 10.2245C7.5518 10.6869 7.72143 11.1286 8 11.5L24.0925 32.955L10.6175 48.355C10.4013 48.6022 10.2359 48.8896 10.1308 49.2007C10.0257 49.5118 9.98286 49.8406 10.0048 50.1683C10.0267 50.496 10.113 50.8161 10.2587 51.1105C10.4043 51.4048 10.6065 51.6676 10.8538 51.8837C11.101 52.0999 11.3883 52.2653 11.6995 52.3704C12.0106 52.4756 12.3394 52.5184 12.6671 52.4965C12.9947 52.4745 13.3149 52.3883 13.6092 52.2426C13.9035 52.0969 14.1663 51.8947 14.3825 51.6475L27.1575 37.045L38 51.5C38.2329 51.8105 38.5348 52.0625 38.882 52.2361C39.2291 52.4096 39.6119 52.5 40 52.5H50C50.4643 52.5 50.9194 52.3707 51.3143 52.1266C51.7093 51.8825 52.0284 51.5333 52.2361 51.118C52.4437 50.7028 52.5316 50.2379 52.4899 49.7755C52.4482 49.3131 52.2786 48.8714 52 48.5L35.9075 27.045L49.3825 11.6475ZM41.25 47.5L15 12.5H18.75L45 47.5H41.25Z" fill="#F7A600"/>
</svg>